<svg width="50" height="50" viewBox="0 0 50 50" xmlns="http://www.w3.org/2000/svg">
<path d="M18.725 36H14.2625V21.9563H18.725V36ZM16.4938 19.9875C15.05 19.9875 14 18.9375 14 17.4937C14 16.05 15.1813 15 16.4938 15C17.9375 15 18.9875 16.05 18.9875 17.4937C18.9875 18.9375 17.9375 19.9875 16.4938 19.9875ZM35 36H30.5375V28.3875C30.5375 26.1563 29.6187 25.5 28.3062 25.5C26.9937 25.5 25.6812 26.55 25.6812 28.5187V36H21.2188V21.9563H25.4187V23.925C25.8125 23.0063 27.3875 21.5625 29.6187 21.5625C32.1125 21.5625 34.7375 23.0063 34.7375 27.3375V36H35Z" />
</svg>
