<svg width="1920" height="770" viewBox="0 0 1920 770" fill="none" xmlns="http://www.w3.org/2000/svg">
<path d="M0 770V0.000183582L1920 0V770C1300 770 988 770 0 770Z" fill="url(#paint0_radial_3248_18224)"/>
<mask id="mask0_3248_18224" style="mask-type:alpha" maskUnits="userSpaceOnUse" x="0" y="0" width="1920" height="770">
<path d="M0 770V0.000183582L1920 0V770C1300 770 988 770 0 770Z" fill="url(#paint1_radial_3248_18224)"/>
</mask>
<g mask="url(#mask0_3248_18224)">
<path d="M270.663 1502.26C-277.935 1894.19 -798.466 1258.99 -342.954 839.58C112.558 420.175 -157.987 192.833 138.004 146.38C433.994 99.9268 463.293 561.148 1097.55 544.435C1731.81 527.723 1720.2 1229.54 1207.26 1312.17C946.68 1354.15 819.26 1110.34 270.663 1502.26Z" fill="#F47E37" fill-opacity="0.2"/>
<path opacity="0.2" d="M1661.25 -224.306C1618.08 -669.148 2155.26 -757.44 2245.06 -356.929C2334.86 43.5824 2555.04 -36.3808 2483.6 148.939C2412.16 334.259 2137.67 198.209 1937.05 567.865C1736.42 937.522 1337.37 698.24 1459.94 376.384C1522.21 212.875 1704.41 220.536 1661.25 -224.306Z" fill="#00305F"/>
<path opacity="0.2" d="M82.8986 198.4C-91.053 322.656 -256.01 121.405 -111.565 -11.5501C32.8794 -144.506 -52.8662 -216.526 40.9722 -231.276C134.811 -246.025 144.055 -99.8636 345.127 -105.22C546.2 -110.577 542.451 111.835 379.834 138.07C297.221 151.398 256.85 74.1443 82.8986 198.4Z" fill="#BC2D40"/>
</g>
<defs>
<radialGradient id="paint0_radial_3248_18224" cx="0" cy="0" r="1" gradientUnits="userSpaceOnUse" gradientTransform="translate(178.467 -126.204) rotate(32.5108) scale(1546.96 2344.38)">
<stop offset="0.25471" stop-color="#F47E37"/>
<stop offset="0.587051" stop-color="#BC2D40"/>
<stop offset="1" stop-color="#00305E"/>
</radialGradient>
<radialGradient id="paint1_radial_3248_18224" cx="0" cy="0" r="1" gradientUnits="userSpaceOnUse" gradientTransform="translate(178.467 -126.204) rotate(28.6099) scale(1872 2645.99)">
<stop offset="0.25471" stop-color="#F47E37"/>
<stop offset="0.587051" stop-color="#BC2D40"/>
<stop offset="1" stop-color="#00305E"/>
</radialGradient>
</defs>
</svg>
