<?xml version="1.0" encoding="UTF-8"?>
<svg xmlns="http://www.w3.org/2000/svg" viewBox="0 0 15 15">
  <path d="m14.68781,6.75818L8.12622.30328c-.39825-.39093-1.08899-.39093-1.48633,0-.20099.19775-.31177.46143-.31177.742,0,.28064.11078.54431.31177.74207l4.74561,4.66779H1.05469c-.58136,0-1.05469.46875-1.05469,1.0451,0,.57629.47333,1.04504,1.05469,1.04504h10.33081l-4.74561,4.66827c-.20099.19775-.31177.46143-.31177.74158s.11078.54382.31177.74158c.20459.20142.47375.30212.74292.30212s.53833-.10071.74341-.30212l6.56158-6.45447c.19867-.19543.31219-.466.31219-.742,0-.27649-.11353-.54706-.31219-.74207Z"/>
</svg>
