<?xml version="1.0" encoding="UTF-8"?>
<svg id="Ebene_1" data-name="Ebene 1" xmlns="http://www.w3.org/2000/svg" width="32" height="32" viewBox="0 0 32 32">
  <path d="M21.55186,9.84027c-1.64124-1.74438-2.85691-1.99097-5.24137-2.07215l-.16815,.00084c-.04773-.00189-.09454,0-.14233,0h-.31146c-2.36438,.08173-3.56382,.31117-5.22129,2.05458v-.00049l-.04871,.04871c-1.55908,1.67322-2.63013,4.06012-2.63013,6.34089,0,2.18951,1.01185,4.08752,2.46485,5.73352l.0401,.04675c1.62976,1.82178,2.96012,2.15278,5.39518,2.23683h.31146l.31146,.05542c2.47229-.086,3.74437-.44563,5.37223-2.27309l.07257-.05542,.00671-.0296c1.4425-1.64313,2.50846-3.74573,2.50846-5.92664,0-2.29224-1.13951-4.47839-2.71958-6.16016Zm2.43166,6.6593c-.10126,1.6579-.70306,3.20929-1.74817,4.50659-.68213-.44519-1.41101-.81775-2.17145-1.10815,.39551-1.09094,.62-2.23248,.67065-3.39844h3.24896Zm-2.43121,5.25458c-1.08429,1.04504-2.44946,1.76727-3.91296,2.07581,.84161-.8913,1.52655-1.90009,2.0434-3.01007,.6496,.24548,1.27631,.55884,1.86957,.93427Zm-5.05365-2.59174v-2.66284h3.23566c-.04968,1.05988-.25696,2.09448-.6181,3.0813-.84833-.24078-1.72717-.38116-2.61755-.41846Zm3.06464-8.2403c-.49963-1.00543-1.14539-1.92822-1.92493-2.7522,1.38519,.28802,2.65674,.93524,3.71906,1.89532-.57129,.34296-1.17316,.63-1.79413,.85687Zm.172,4.57867h-3.23663l.00098-2.96564c.85693-.03729,1.70142-.16815,2.5144-.39026,.42511,1.06799,.66681,2.19525,.72125,3.3559Zm-3.23566-3.96539v-3.0946c.85596,.81104,1.55811,1.74384,2.09308,2.78174-.6792,.17389-1.38135,.27899-2.09308,.31287Zm2.22681,8.974c-.55121,1.14636-1.29822,2.17041-2.22778,3.05023v-3.39795c.75568,.03534,1.50275,.15186,2.22778,.34772Zm5.25806-5.00861h-3.24994c-.0545-1.271-.31244-2.50189-.76715-3.66443,.73657-.27325,1.4425-.62146,2.10553-1.03796,1.12915,1.31641,1.80267,2.97333,1.91156,4.70239Zm-15.96802,0c.10791-1.7276,.78143-3.38458,1.91058-4.70239,.66394,.41748,1.37091,.76569,2.10553,1.03796-.45471,1.16254-.71265,2.39343-.76715,3.66443h-3.24896Zm4.24823,.99878h3.23566v2.66284c-.89319,.03821-1.77209,.17865-2.61755,.41846-.36108-.98877-.56842-2.02332-.6181-3.0813Zm.05353,4.32031c.51489,1.10907,1.20081,2.11786,2.04242,3.01007-1.4635-.30853-2.82867-1.03076-3.91199-2.07581,.59229-.37451,1.21997-.68781,1.86957-.93427Zm-.38214-.92188c-.76135,.29041-1.4903,.66296-2.17145,1.10815-1.04511-1.2973-1.64691-2.84772-1.74817-4.50659h3.24896c.05066,1.16595,.27515,2.3075,.67065,3.39844Zm3.56427,.26367v3.39795c-.9295-.88171-1.67755-1.90485-2.22681-3.04932,.72028-.1958,1.46832-.31238,2.22681-.34863Zm.00098-7.62653v2.96564h-3.23566c.05444-1.16064,.29614-2.28741,.72125-3.3559,.8139,.22211,1.65747,.35297,2.5144,.39026Zm-3.06464-1.61304c-.62286-.22736-1.22473-.5144-1.79413-.85687,1.06042-.96008,2.33289-1.6073,3.71808-1.89532-.77856,.82349-1.42432,1.74677-1.92395,2.7522Zm3.06464-2.4809v3.09467c-.70789-.03345-1.41101-.13849-2.09406-.31287,.53687-1.03931,1.23901-1.97266,2.09406-2.7818Z"/>
  <path d="M16,8.25c4.27323,0,7.74976,3.47653,7.74976,7.74976,0,4.2735-3.47653,7.75024-7.74976,7.75024s-7.74976-3.47674-7.74976-7.75024c0-4.27323,3.47653-7.74976,7.74976-7.74976m0-1.25c-4.9626,0-8.99976,4.03716-8.99976,8.99976,0,4.96308,4.03716,9.00024,8.99976,9.00024s8.99976-4.03716,8.99976-9.00024c0-4.9626-4.03716-8.99976-8.99976-8.99976h0Z"/>
</svg>
