<svg width="50" height="50" viewBox="0 0 50 50" xmlns="http://www.w3.org/2000/svg">
<path d="M29.4687 15.5493C29.6303 15.2714 29.8254 15 30.2753 15H33.3188C33.5002 15 33.6426 15.0655 33.7194 15.1842C33.7988 15.3074 33.7968 15.47 33.7132 15.6293L27.0428 26.9215C27.0387 26.9274 27.0387 26.9346 27.0428 26.9405L31.2901 34.37C31.3743 34.5299 31.3764 34.6925 31.2962 34.8158C31.2196 34.9345 31.0778 35 30.8964 35H27.887C27.4255 35 27.1948 34.7063 27.0455 34.4507C27.0455 34.4507 22.7756 26.9509 22.7646 26.9313C22.9783 26.5694 29.4687 15.5493 29.4687 15.5493ZM17.208 19.1305C17.2847 19.0112 17.4374 18.9502 17.6188 18.9502H20.6317C21.0938 18.9502 21.3204 19.2354 21.4704 19.491C21.4704 19.491 23.5293 22.9301 23.5417 22.9491C23.4198 23.155 20.2893 28.4559 20.2893 28.4559C20.1352 28.722 19.9182 29.0131 19.4676 29.0131H16.4548C16.2734 29.0131 16.1379 28.9352 16.0611 28.8165C15.9817 28.6932 15.9776 28.5333 16.0611 28.374L19.2621 22.9655C19.2655 22.9597 19.2655 22.9557 19.2621 22.9491L17.2251 19.573C17.1409 19.4124 17.1285 19.2538 17.208 19.1305Z" />
</svg>
