<?xml version="1.0" encoding="UTF-8"?>
<svg xmlns="http://www.w3.org/2000/svg" width="58" height="15" viewBox="0 0 58 15">
  <path d="M57.81689,7.06557L50.81689,.18011c-.24414-.24015-.63965-.24015-.88379,0s-.24414,.62918,0,.86933l5.95782,5.86033H.59998c-.29999,0-.59998,.29508-.59998,.59016s.29999,.59022,.59998,.59022H55.89142l-5.95831,5.85992c-.24414,.24014-.24414,.63014,0,.87029,.12207,.12007,.28174,.17963,.44189,.17963s.31982-.05956,.44189-.17963l7-6.88546c.11719-.11527,.18311-.27137,.18311-.43466,0-.16282-.06592-.3194-.18311-.43466v-.00002Z" />
</svg>
