<?xml version="1.0" encoding="UTF-8"?>
<svg id="Ebene_1" data-name="Ebene 1" xmlns="http://www.w3.org/2000/svg" width="32" height="32" viewBox="0 0 32 32">
  <path d="M15.00961,8.25c1.7968,0,3.49187,.70553,4.77296,1.98661,1.28109,1.2811,1.98662,2.97618,1.98662,4.77298s-.70553,3.49188-1.98662,4.77298c-1.2811,1.28109-2.97617,1.98662-4.77298,1.98662s-3.49188-.70553-4.77298-1.98662c-2.63181-2.63182-2.63181-6.91411,0-9.54594,1.2811-1.2811,2.97618-1.98663,4.77299-1.98663m0-1.25c-2.04443,0-4.08818,.78406-5.65687,2.35274-3.13698,3.13699-3.137,8.17672-.00001,11.31371,1.5685,1.56849,3.61268,2.35274,5.65686,2.35274s4.08837-.78425,5.65686-2.35274c3.13699-3.13698,3.13699-8.17673,0-11.31372-1.5683-1.5683-3.61291-2.35273-5.65684-2.35273h0Z"/>
  <line x1="20.66646" y1="20.66646" x2="24.3732" y2="24.3732" stroke="currentColor" stroke-linecap="round" stroke-linejoin="round" stroke-width="1.25"/>
</svg>
