<?xml version="1.0" encoding="UTF-8"?>
<svg xmlns="http://www.w3.org/2000/svg" width="28" height="15" viewBox="0 0 28 15">
  <path d="M27.81689,7.06555L20.81689,.18011c-.24414-.24015-.63965-.24015-.88379,0s-.24414,.62918,0,.86933l5.93311,5.836H.625c-.34473,0-.625,.27521-.625,.61477s.28027,.61429,.625,.61429H25.86658l-5.93347,5.83552c-.24414,.24015-.24414,.63014,0,.87029,.12207,.12007,.28174,.17969,.44189,.17969v-.00006c.16016,0,.31982-.05956,.44189-.17963l7-6.88544c.11719-.11527,.18311-.27136,.18311-.43466s-.06592-.31939-.18311-.43466Z" />
</svg>
