<?xml version="1.0" encoding="UTF-8"?>
<svg id="Ebene_1" data-name="Ebene 1" xmlns="http://www.w3.org/2000/svg" width="32" height="32" viewBox="0 0 32 32">
  <path d="M19.33907,21.35073c-.34984-.21881-.70045-.43652-1.05097-.65423-.74306-.46153-1.51128-.93869-2.25945-1.41947-.46427-.29838-.92439-.30503-1.40649-.01997-.3912,.23122-.79338,.45971-1.18236,.68075-.31832,.1807-.64743,.36765-.9696,.55561-.14161,.08258-.20379,.07351-.31677-.04628-1.38962-1.47332-2.66973-2.81989-3.91343-4.11685-.1406-.14662-.15325-.22971-.06163-.40456,.2373-.45263,.47119-.91605,.69737-1.36423,.16421-.32537,.33404-.66182,.50344-.99079,.22963-.4459,.22266-.87137-.02128-1.30066-.39471-.69452-.79157-1.40393-1.17547-2.08995-.28538-.51003-.5707-1.02001-.85785-1.5289-.35187-.62359-.87309-.8038-1.5073-.52071l-.365,.16275c-.64556,.28771-1.31305,.58518-1.96633,.88751-.20489,.09484-.41556,.20686-.56859,.38307-.50716,.58433-.80523,1.28917-.88588,2.09503-.09691,.96826,.04862,1.98634,.44494,3.11225,.57923,1.6456,1.46506,3.21008,2.78767,4.92349,2.17879,2.82241,4.53897,4.88502,7.21548,6.3058,1.17696,.62478,2.29194,.96057,3.31697,.99828,.04762,.00101,.09447,.00151,.14084,.00151,.66334,0,1.19383-.1085,1.7037-.34668,.69081-.32278,1.11825-.78037,1.34528-1.44025,.17796-.51739,.39418-1.03428,.60318-1.53402,.08956-.21407,.182-.43531,.27079-.65463,.29692-.73369,.1313-1.2656-.52124-1.67388ZM8.47157,13.13658c-.35856,.68499-.71168,1.38704-1.05317,2.06593l-.12154,.24155c-.32665,.64906-.26312,1.10343,.22666,1.62062,1.28886,1.36109,2.57788,2.72198,3.86757,4.08216,.52953,.55833,.93336,.61994,1.60065,.24402l.4151-.23354c.57368-.32247,1.16694-.65594,1.7466-.99273,.13583-.07885,.22336-.07633,.36015,.01079,.73766,.4699,1.49027,.94252,2.2181,1.39951,.37114,.23303,.74239,.46617,1.11324,.69991,.12445,.07845,.15906,.18574,.10402,.32177-.13419,.33125-.26973,.66189-.40527,.99243-.20341,.49632-.41366,1.00937-.61601,1.51658-.09447,.23676-.28448,.40163-.61611,.53444-.69564,.27858-1.31503,.37861-2.0576,.26517-.74536-.11386-1.45663-.38884-2.12689-.72751-1.88686-.95341-3.66466-2.3269-5.43498-4.19923-1.7944-1.89764-3.08947-3.76674-3.95915-5.71414-.38806-.86885-.82155-2.0301-.72897-3.30872,.04581-.63231,.23384-1.15502,.5748-1.598,.04235-.05502,.10647-.10597,.17156-.13633,.81853-.38135,1.64386-.75763,2.41906-1.11028,.07941-.03613,.12673-.05764,.16211-.05764,.05223,0,.0787,.04674,.14412,.16241,.22249,.39322,.4444,.78691,.66625,1.18053,.43197,.76642,.8787,1.55892,1.32326,2.3355,.08627,.1507,.08778,.24908,.00643,.40481Z"/>
  <path d="M25.01147,18.79999c.08184,.07571,.18371,.16989,.33099,.19136,.03403,.00493,.07609,.00822,.12213,.00822,.14645,0,.33433-.03355,.44393-.15529,.12275-.13672,.09749-.33156,.05188-.52166-.0286-.11913-.12547-.19252-.18966-.24106-.01274-.00967-.02547-.01914-.03664-.02872-.39686-.34171-.79402-.68304-1.19119-1.02446l-.82659-.71069c-.67701-.58238-1.35382-1.1649-2.05693-1.76999l-.64894-.55857c.00981-.00755,.01952-.01537,.02912-.02364,1.63951-1.40059,3.28006-2.80549,4.66843-3.99503,.01472-.01264,.03111-.025,.0476-.03759,.07724-.05898,.18298-.13969,.21659-.26779,.02182-.08345,.08006-.36858-.08643-.53444-.13663-.13619-.37588-.1421-.55238-.12317-.13768,.01477-.22745,.1032-.293,.16776-.01336,.01319-.02641,.02638-.03977,.03776-.9507,.81487-1.90109,1.62986-2.85158,2.4449-1.0054,.8621-2.01089,1.72425-3.0165,2.58618-.26377,.2261-.52879,.45105-.79611,.67797l-.21586,.18336c-.02641-.0215-.05188-.04241-.07672-.0638-1.44713-1.23988-2.89417-2.47987-4.34109-3.71985l-1.63586-1.40179c-.15876-.13604-.36982-.28941-.59956-.27102-.08998,.00739-.22097,.04525-.33496,.18402-.3217,.3919,.02547,.68327,.17369,.80771l.0382,.03217c1.48169,1.26899,2.68614,2.29744,3.79069,3.23669,.03288,.02796,.06722,.05248,.10219,.07497l-.05845,.05105c-.17766,.15529-.32953,.28793-.48224,.41964l-.17588,.15168c-.47608,.41066-.96834,.83533-1.45465,1.25028-.25876,.22085-.28726,.49362-.0763,.72974,.09133,.1022,.34728,.31271,.75175,.05956,.06085-.0381,.11033-.082,.15396-.12067l.6648-.576c.40114-.34761,.80237-.6951,1.20445-1.0418,.08778-.07567,.17797-.1485,.27316-.22505l.37901,.32667c.39947,.34413,.7911,.68153,1.1818,1.01986,.41178,.35651,.63672,.35767,1.04663,.00532,.39863-.34287,.79757-.68537,1.20101-1.03185l.37661-.32339c.02349,.01866,.04572,.03677,.06712,.05521l1.73168,1.49051c.98191,.8452,1.96372,1.69049,2.94615,2.5352,.0144,.01238,.02891,.02582,.04363,.03955h.0001Z"/>
  <path d="M26.54199,7H10.99707c-.34473,0-.625,.28027-.625,.625s.28027,.625,.625,.625h15.54492c.73535,0,1.33301,.59814,1.33301,1.33301v9.83398c0,.73535-.59766,1.33301-1.33301,1.33301h-2.53711c-.34473,0-.625,.28027-.625,.625s.28027,.625,.625,.625h2.53711c1.42383,0,2.58301-1.15918,2.58301-2.58301V9.58301c0-1.42432-1.15918-2.58301-2.58301-2.58301Z"/>
</svg>
