<svg width="50" height="50" viewBox="0 0 50 50" xmlns="http://www.w3.org/2000/svg">
<path d="M37.375 18.6563C37.0625 17.5625 36.2813 16.7813 35.1875 16.4688C33.3125 16 25.3437 16 25.3437 16C25.3437 16 17.5313 16 15.5 16.4688C14.4063 16.7813 13.625 17.5625 13.3125 18.6563C13 20.6875 13 24.75 13 24.75C13 24.75 13 28.8125 13.4688 30.8437C13.7813 31.9375 14.5625 32.7187 15.6562 33.0312C17.5312 33.5 25.5 33.5 25.5 33.5C25.5 33.5 33.3125 33.5 35.3437 33.0312C36.4375 32.7187 37.2188 31.9375 37.5313 30.8437C38 28.8125 38 24.75 38 24.75C38 24.75 38 20.6875 37.375 18.6563ZM23 28.5V21L29.5625 24.75L23 28.5Z"/>
</svg>
