<?xml version="1.0" encoding="UTF-8"?>
<svg xmlns="http://www.w3.org/2000/svg" width="15" height="15" viewBox="0 0 15 15">
  <path d="M14.81683,7.06512L7.81683,.17963c-.12207-.12007-.28168-.17963-.44183-.17963s-.31982,.05956-.44189,.17963c-.24414,.24015-.24414,.63015,0,.87029l5.93347,5.83557H.625c-.34479,0-.625,.27473-.625,.6143s.28021,.61478,.625,.61478H12.86609l-5.93304,5.83605c-.24414,.24015-.24414,.62918,0,.86933,.24414,.24009,.63965,.24009,.88379,0l7-6.88549c.11719-.11527,.18317-.27185,.18317-.43467,0-.1633-.06598-.3194-.18317-.43467Z" />
</svg>
