<svg width="50" height="50" viewBox="0 0 50 50" xmlns="http://www.w3.org/2000/svg">
<path d="M36 18.1562C35.1375 18.5875 34.275 18.7313 33.2688 18.875C34.275 18.3 34.9937 17.4375 35.2812 16.2875C34.4188 16.8625 33.4125 17.15 32.2625 17.4375C31.4 16.575 30.1063 16 28.8125 16C25.7937 16 23.4938 18.875 24.2125 21.75C20.3313 21.6062 16.8813 19.7375 14.4375 16.8625C13.1438 19.0188 13.8625 21.75 15.875 23.1875C15.1562 23.1875 14.4375 22.9 13.7188 22.6125C13.7188 24.7688 15.3 26.7812 17.4563 27.3562C16.7375 27.5 16.0188 27.6438 15.3 27.5C15.875 29.3687 17.6 30.8062 19.7562 30.8062C18.0312 32.1 15.4438 32.8188 13 32.5312C15.1562 33.825 17.6 34.6875 20.1875 34.6875C28.9563 34.6875 33.8437 27.3562 33.5562 20.6C34.5625 20.025 35.425 19.1625 36 18.1562Z"/>
</svg>
