<?xml version="1.0" standalone="no"?>
<!DOCTYPE svg PUBLIC "-//W3C//DTD SVG 20010904//EN"
 "http://www.w3.org/TR/2001/REC-SVG-20010904/DTD/svg10.dtd">
<svg version="1.0" xmlns="http://www.w3.org/2000/svg"
 width="1024.000000pt" height="1024.000000pt" viewBox="0 0 1024.000000 1024.000000"
 preserveAspectRatio="xMidYMid meet">
<metadata>
Created by potrace 1.14, written by Peter Selinger 2001-2017
</metadata>
<g transform="translate(0.000000,1024.000000) scale(0.100000,-0.100000)"
fill="#000000" stroke="none">
<path d="M2561 8451 c-18 -10 -49 -33 -68 -52 -71 -69 -68 -36 -71 -629 -3
-598 -4 -587 66 -662 113 -120 305 -91 385 57 21 38 22 57 27 350 5 247 9 315
21 336 28 49 68 89 114 114 l47 25 572 0 c404 0 582 -4 609 -12 52 -16 113
-71 139 -126 l22 -47 1 -2170 c1 -1808 -1 -2177 -13 -2211 -15 -47 -102 -144
-129 -144 -5 -1 -24 -5 -44 -10 -64 -17 -154 4 -206 49 -17 14 -224 297 -353
481 -30 44 -336 471 -361 505 -16 22 -54 76 -85 120 -30 44 -71 100 -90 125
-19 25 -37 53 -40 63 -4 9 -9 17 -13 17 -4 0 -27 30 -51 68 -25 37 -47 69 -50
72 -12 12 -90 120 -90 125 0 3 -11 18 -25 33 -14 15 -25 32 -25 39 0 7 -4 13
-8 13 -4 0 -15 12 -24 28 -9 15 -24 36 -33 47 -12 16 -162 225 -403 564 -9 13
-32 43 -49 67 -18 24 -33 48 -33 53 0 5 -4 11 -8 13 -8 3 -48 57 -180 246 -17
26 -38 54 -45 62 -6 8 -55 76 -107 150 -52 74 -100 142 -107 150 -25 31 -223
311 -223 315 0 3 -7 13 -15 22 -8 10 -94 128 -189 263 -96 135 -179 250 -183
255 -5 6 -30 40 -56 77 -104 150 -202 283 -209 286 -4 2 -8 8 -8 13 0 5 -36
58 -80 118 -44 60 -80 113 -80 119 0 6 -4 12 -8 14 -5 2 -41 48 -80 103 -39
55 -75 105 -79 110 -4 6 -24 33 -43 60 -19 28 -42 59 -52 69 -10 11 -18 24
-18 28 0 18 -67 81 -110 103 -65 32 -159 29 -221 -7 -120 -71 -160 -222 -87
-330 10 -14 18 -31 18 -36 0 -6 4 -12 8 -14 5 -1 28 -30 51 -63 23 -33 61 -86
84 -119 23 -32 47 -66 52 -75 6 -9 12 -18 15 -21 6 -5 45 -60 115 -160 21 -30
41 -57 44 -60 3 -3 11 -13 16 -22 13 -21 137 -196 150 -212 6 -6 27 -37 48
-68 21 -31 47 -67 58 -79 10 -12 19 -25 19 -29 0 -3 8 -15 17 -26 10 -10 38
-48 62 -84 25 -36 47 -67 50 -70 4 -3 26 -34 51 -70 24 -36 50 -71 57 -78 7
-8 18 -23 24 -35 7 -11 16 -26 20 -31 17 -22 149 -205 189 -262 81 -116 105
-149 112 -152 4 -2 8 -8 8 -14 0 -5 6 -16 13 -23 15 -18 29 -36 42 -57 6 -9
109 -154 230 -323 121 -168 225 -313 230 -323 9 -15 14 -21 40 -54 6 -7 31
-42 55 -78 25 -36 48 -66 53 -68 4 -2 7 -10 7 -17 0 -7 4 -15 8 -17 6 -2 234
-317 361 -500 59 -84 358 -502 381 -533 14 -18 32 -43 40 -55 20 -29 158 -222
168 -235 4 -5 55 -76 112 -158 103 -145 266 -373 294 -412 24 -33 135 -188
148 -209 7 -10 24 -33 38 -51 14 -18 31 -41 38 -51 7 -11 76 -108 155 -218 78
-109 149 -208 157 -221 40 -60 85 -120 92 -123 4 -2 8 -8 8 -13 0 -5 21 -38
48 -72 47 -62 53 -72 93 -134 12 -18 25 -33 30 -33 5 0 9 -5 9 -10 0 -6 24
-43 53 -83 30 -39 62 -87 72 -104 11 -18 22 -33 25 -33 3 0 16 -18 30 -40 14
-22 28 -40 32 -40 5 0 8 -6 8 -12 0 -13 40 -58 76 -88 56 -46 161 -56 235 -23
54 24 91 59 121 116 l23 42 -1 3165 c0 1741 -4 3176 -7 3190 -9 32 -67 117
-87 125 -8 3 -28 13 -45 23 -28 16 -107 17 -1100 18 -993 2 -1072 1 -1104 -15z"/>
<path d="M6176 8458 c-55 -12 -90 -33 -130 -80 -101 -117 -62 -298 79 -370 22
-12 41 -20 43 -19 1 0 3 0 5 0 1 -1 315 -2 697 -3 682 -2 696 -2 740 -23 59
-28 98 -66 123 -122 l21 -46 1 -2925 1 -2925 21 -45 c90 -192 364 -182 444 15
9 23 12 688 13 2950 2 3045 0 2964 40 3012 33 41 66 67 106 86 44 20 59 21
595 22 303 0 570 -3 595 -8 108 -21 202 -142 191 -247 -1 -8 -1 -26 0 -40 0
-14 1 -29 1 -35 -1 -45 -2 -218 -1 -250 0 -22 0 -44 -1 -50 -1 -5 -2 -14 -1
-19 1 -5 3 -39 5 -77 5 -102 45 -163 144 -213 31 -16 113 -22 159 -12 54 12
117 66 149 128 l24 47 0 535 c0 487 -2 539 -18 574 -25 54 -68 98 -121 124
l-46 23 -1921 0 c-1057 0 -1938 -3 -1958 -7z"/>
<path d="M170 7239 c-71 -22 -132 -82 -158 -158 -9 -24 -12 -324 -12 -1120 0
-1071 1 -1087 21 -1131 23 -51 77 -105 129 -127 35 -14 114 -19 158 -9 74 17
158 115 168 197 10 70 10 199 1 199 -5 0 -5 5 -1 11 10 16 11 69 2 97 -4 12
-4 22 0 22 4 0 7 22 7 49 0 27 -4 47 -9 44 -5 -4 -6 0 -1 7 11 17 12 290 2
290 -5 0 -5 5 -1 11 8 14 8 254 0 268 -4 6 -4 11 1 11 9 0 8 83 -1 106 -3 8
-2 14 2 14 4 0 6 39 4 87 -3 104 -3 135 1 140 2 1 110 -147 240 -330 130 -182
241 -337 246 -344 6 -6 30 -40 53 -75 24 -35 49 -67 55 -71 7 -4 13 -12 13
-18 0 -5 5 -15 11 -22 6 -7 66 -91 134 -187 68 -96 128 -179 132 -185 5 -5 42
-57 83 -115 40 -58 76 -107 79 -110 3 -3 11 -13 16 -22 10 -16 227 -321 253
-356 7 -9 51 -71 98 -137 47 -66 92 -129 100 -140 8 -11 58 -81 112 -156 53
-75 105 -147 115 -160 9 -13 55 -78 102 -144 203 -287 384 -541 396 -556 8 -9
20 -24 27 -35 21 -33 45 -66 107 -152 33 -46 65 -91 70 -100 6 -10 12 -19 15
-22 3 -3 39 -52 80 -110 41 -58 77 -107 80 -110 12 -12 50 -70 50 -77 0 -5 9
-15 20 -23 11 -8 20 -18 20 -21 0 -4 28 -46 63 -94 34 -47 67 -94 72 -103 6
-9 13 -19 16 -22 3 -3 26 -34 50 -68 50 -72 56 -81 155 -219 91 -128 103 -141
139 -161 111 -61 231 -42 308 49 54 62 73 167 43 239 -9 22 -135 209 -169 250
-7 9 -28 38 -47 65 -56 84 -134 190 -142 193 -5 2 -8 8 -8 14 0 6 -10 23 -22
38 -13 16 -33 44 -46 62 -12 18 -52 73 -87 121 -36 48 -65 90 -65 93 0 3 -5
10 -10 17 -34 39 -230 317 -230 325 0 6 -4 12 -8 14 -7 2 -224 301 -340 468
-15 21 -59 82 -98 137 -39 54 -86 121 -106 148 -19 28 -119 167 -221 310 -102
143 -230 322 -284 398 -54 76 -104 145 -110 152 -7 7 -13 18 -13 23 0 6 -3 12
-8 14 -4 2 -41 50 -82 108 -40 58 -78 107 -82 108 -4 2 -8 9 -8 16 0 7 -8 21
-18 32 -9 10 -43 55 -74 99 -31 44 -66 94 -78 110 -96 136 -194 271 -199 275
-3 3 -12 17 -20 32 -8 15 -21 36 -30 45 -9 10 -41 53 -71 96 -30 43 -76 107
-102 143 -27 36 -48 69 -48 74 0 6 -4 10 -8 10 -4 0 -16 15 -27 33 -10 17 -21
34 -25 37 -4 3 -33 43 -66 90 -32 47 -62 90 -67 95 -7 9 -58 80 -101 140 -201
280 -293 410 -301 423 -5 9 -12 19 -16 22 -3 3 -21 28 -40 55 -18 28 -37 52
-40 55 -3 3 -24 32 -46 65 -51 75 -84 108 -130 130 -44 21 -126 28 -173 14z"/>
<path d="M6079 6345 c-56 -29 -111 -91 -127 -142 -9 -29 -11 -562 -9 -2148 l2
-2110 21 -40 c44 -81 110 -125 198 -132 118 -9 229 73 253 187 8 39 7 4171 -1
4215 -21 113 -111 187 -230 191 -48 2 -71 -3 -107 -21z"/>
</g>
</svg>
