<svg xmlns="http://www.w3.org/2000/svg" width="100" height="145" viewBox="0 0 100 145">
  <path d="M100,118.3V6.7c0,0,0-6.7-6.7-6.7H6.7C6.7,0,0,0,0,6.7v111.7c0,0,0,6.699,6.7,6.699h86.7 C93.3,125,100,125,100,118.3" fill="#006eb9" />
  <path d="M61.43,49.241c-8.088-0.8-16.442-5.677-24.563-5.677c-9.044,0-12.971,2.495-16.331,4.371 c2.3,10.373,10.627,18.659,21.375,21.488c-0.163-0.738-2.258-4.685,1.963-8.076c4.221-3.391,13.3-4.111,19.725-6.087 c6.424-1.976,12.323-5.14,16.219-8.647C74.188,48.69,69.516,50.046,61.43,49.241z M55.991,43.357 c3.331,0.648,6.885,1.827,11.925,1.294c5.04-0.533,7.672-1.8,12.23-4.174c-0.284-4.676-1.779-9.198-4.336-13.123 C71.281,34.844,64.268,40.507,55.991,43.357z M72.313,22.971c-3.049-3.125-6.736-5.554-10.813-7.12 c0.113,7.841-1.779,15.581-5.5,22.485C62.178,35.274,67.674,30.089,72.313,22.971z M56.314,14.346 c-4.4-0.877-8.937-0.82-13.314,0.169c5.218,6.806,8.166,13.631,9.094,21.1C55.34,29.57,56.745,22.74,56.314,14.346z M38.232,15.991 c-4.279,1.707-8.11,4.372-11.2,7.789c-0.1,0.11-0.2,0.213-0.293,0.325c-0.027,0.028-0.049,0.058-0.074,0.088 c8.594,2.385,15.409,6.079,20.834,11.648C46.576,28.972,43.667,22.606,38.232,15.991z M44.855,40.077 c-5.132-5.71-11.875-9.44-21.162-11.762c-2.485,4.17-3.798,8.934-3.8,13.788c0,0.16,0.011,0.317,0.014,0.477 C30.4,37.409,37.8,38.153,44.855,40.077z" fill="#fff" />
  <path d="M87.5,94.9c0-5-1.3-7.601-6.7-7.601H68.4c-1.2,0-2.101,0.9-2.101,2.101v24.5c0,1.199,0.9,2.1,2.101,2.1h13.1 c4.9,0,6.8-2.9,6.8-8c0-3.6-0.6-6.3-4.399-7v-0.1C86.9,99.9,87.5,97.9,87.5,94.9 M69.6,103c0-0.2,0.101-0.3,0.301-0.3h10.3 c4.3-0.101,4.899,1.8,4.899,5.6c0,4.4-1.699,4.8-5.199,4.8H70c-0.2,0-0.3-0.1-0.3-0.3V103H69.6z M84.2,94.5c0,4.5-1.3,5.4-5.2,5.4 h-9.1C69.7,99.9,69.6,99.8,69.6,99.6v-9c0-0.199,0.101-0.3,0.301-0.3H79.3C82.7,90.2,84.2,90.6,84.2,94.5 M42.7,94.7 c0-4,0.9-4.8,7.2-4.8c6,0,7,0.199,7.2,4.899c0,0.2,0.101,0.3,0.301,0.3H60c0.2,0,0.3-0.1,0.3-0.3C60.5,87.3,56.1,87,50,87 c-7.1,0-10.6,0.7-10.6,8.3c0,7.601,4.9,6.9,10.5,7.3c5.2,0.4,7.7-0.5,7.7,5c0,5.601-1.699,5.601-7.8,5.601c-6,0-7.3,0-7.2-6 c0-0.2-0.1-0.3-0.3-0.3h-2.6c-0.2,0-0.3,0.1-0.3,0.3c-0.5,8,3.3,8.899,10.5,8.899S61,115.8,61,107.7c0-7.8-3.4-7.601-10.2-8 C45.3,99.7,42.7,100.2,42.7,94.7 M36.3,87.8c0-0.1,0.2-0.5-0.2-0.5h-2.8c-0.3,0-0.4,0.2-0.5,0.4l-8.4,25.1c0,0.101-0.1,0.3-0.3,0.4 c-0.2,0.1-0.5,0.2-0.6,0.2H23c-0.1,0-0.4,0-0.5-0.101c-0.1-0.1-0.2-0.3-0.2-0.399L13.9,87.8c-0.1-0.2-0.2-0.399-0.5-0.399h-2.8 c-0.3,0-0.2,0.3-0.2,0.5l8.9,25.699l0.4,1.101c0.2,0.7,0.6,1.399,1.2,1.7c0.3,0.199,0.7,0.199,0.9,0.199h3.1c0.2,0,0.7-0.1,1-0.3 c0.6-0.399,1.1-1.1,1.3-1.6l0.4-1.2L36.3,87.8z" fill="#fff" />
</svg>
