<svg xmlns="http://www.w3.org/2000/svg" xmlns:xlink="http://www.w3.org/1999/xlink" width="142.955" height="142.957" viewBox="0 0 142.955 142.957">
  <defs>
    <clipPath id="clip-path">
      <rect id="Rechteck_18" data-name="Rechteck 18" width="142.955" height="142.957" fill="none"/>
    </clipPath>
  </defs>
  <g id="Gruppe_10" data-name="Gruppe 10" transform="translate(0 0)">
    <text id="Gesagt_" data-name="Gesagt," transform="translate(19.937 67.45)" fill="#fff" font-size="30" font-family="LidlFontPro-Bold, Lidl Font Pro" font-weight="700"><tspan x="0" y="0" letter-spacing="-0.019em">Ge</tspan><tspan y="0" letter-spacing="-0.02em">s</tspan><tspan y="0" letter-spacing="-0.019em">agt</tspan><tspan y="0">,</tspan></text>
    <text id="getan" transform="translate(29.802 93.056)" fill="#fff" font-size="30" font-family="LidlFontPro-Bold, Lidl Font Pro" font-weight="700"><tspan x="0" y="0" letter-spacing="-0.019em">g</tspan><tspan y="0" letter-spacing="-0.018em">eta</tspan><tspan y="0">n</tspan></text>
    <text id="_." data-name="." transform="translate(108.755 88.056)" fill="#fff" font-size="24" font-family="LidlFontPro-Bold, Lidl Font Pro" font-weight="700"><tspan x="0" y="0">.</tspan></text>
    <g id="Gruppe_9" data-name="Gruppe 9" transform="translate(0 0)">
      <g id="Gruppe_8" data-name="Gruppe 8" clip-path="url(#clip-path)">
        <path id="Pfad_12" data-name="Pfad 12" d="M70.253,1.111A69.144,69.144,0,1,1,1.111,70.253,69.141,69.141,0,0,1,70.253,1.111" transform="translate(1.224 1.225)" fill="#296825"/>
        <path id="Pfad_13" data-name="Pfad 13" d="M71.476,142.956a71.477,71.477,0,1,1,71.478-71.478,71.559,71.559,0,0,1-71.478,71.478m0-138.288a66.81,66.81,0,1,0,66.809,66.809A66.886,66.886,0,0,0,71.476,4.668" transform="translate(0 0.002)" fill="#fff"/>
        <path id="Pfad_14" data-name="Pfad 14" d="M24.6,43.889a8.3,8.3,0,0,0,3-1.824,7.987,7.987,0,0,0,1.9-2.894,10.448,10.448,0,0,0,.664-3.835V34.1c0-.391-.021-.815-.061-1.269,0-.391-.208-.586-.62-.586H21.535a.548.548,0,0,0-.62.618v3.03a.548.548,0,0,0,.62.62h3.154a2.877,2.877,0,0,1-1.1,2.442,4.82,4.82,0,0,1-2.984.836,4.572,4.572,0,0,1-3.681-1.608,7.1,7.1,0,0,1-1.36-4.7,7.346,7.346,0,0,1,1.36-4.778,4.514,4.514,0,0,1,3.681-1.654,4.727,4.727,0,0,1,4.2,2.133.591.591,0,0,0,.927.185l3-1.948a.562.562,0,0,0,.216-.834q-2.534-4.145-8.349-4.146a12.059,12.059,0,0,0-4.394.759,8.975,8.975,0,0,0-3.307,2.2,9.738,9.738,0,0,0-2.089,3.48,13.7,13.7,0,0,0-.727,4.608,13.7,13.7,0,0,0,.727,4.606,9.738,9.738,0,0,0,2.089,3.48,8.95,8.95,0,0,0,3.307,2.2,12.014,12.014,0,0,0,4.394.759,11.739,11.739,0,0,0,3.988-.635" transform="translate(11.113 24.716)" fill="#fff"/>
        <path id="Pfad_15" data-name="Pfad 15" d="M30.427,41.193a9.382,9.382,0,0,0,1.608-.464,7.186,7.186,0,0,0,1.208-.6,9.329,9.329,0,0,0,.851-.6.565.565,0,0,0,.185-.8l-.99-1.979a.593.593,0,0,0-.929-.277,6.079,6.079,0,0,1-1.345.618,6.258,6.258,0,0,1-1.994.279q-3.032,0-3.587-2.6h8.473a.559.559,0,0,0,.62-.557,10.638,10.638,0,0,0,.092-1.42,9.524,9.524,0,0,0-.525-3.324,6.481,6.481,0,0,0-1.454-2.337,5.848,5.848,0,0,0-2.181-1.376,7.985,7.985,0,0,0-2.706-.448,7.606,7.606,0,0,0-2.7.494A7.028,7.028,0,0,0,22.7,27.26a7.258,7.258,0,0,0-1.671,2.459,8.689,8.689,0,0,0-.633,3.434,10.373,10.373,0,0,0,.586,3.679A6.865,6.865,0,0,0,22.635,39.4a6.529,6.529,0,0,0,2.536,1.5,10.359,10.359,0,0,0,3.232.479,10.147,10.147,0,0,0,2.024-.185M26.144,29.92a2.35,2.35,0,0,1,1.7-.7,1.957,1.957,0,0,1,1.668.788,3.037,3.037,0,0,1,.588,1.872H25.31a3.069,3.069,0,0,1,.834-1.965" transform="translate(22.459 27.861)" fill="#fff"/>
        <path id="Pfad_16" data-name="Pfad 16" d="M40.029,36.647a3.9,3.9,0,0,0-.324-1.671,4.445,4.445,0,0,0-.883-1.236A6.194,6.194,0,0,0,37,32.472q-1.021-.463-1.933-.834a12.989,12.989,0,0,1-1.532-.727A1.046,1.046,0,0,1,32.916,30a.839.839,0,0,1,.309-.666,1.472,1.472,0,0,1,.96-.263,1.607,1.607,0,0,1,.99.279,1.51,1.51,0,0,1,.525.71.659.659,0,0,0,.834.464l2.877-.557q.618-.154.464-.71a4.938,4.938,0,0,0-2.089-3.032,6.782,6.782,0,0,0-3.633-.929,8.1,8.1,0,0,0-2.366.326,5.486,5.486,0,0,0-1.841.943,4.375,4.375,0,0,0-1.206,1.5,4.544,4.544,0,0,0-.433,2.026,4.072,4.072,0,0,0,.355,1.763,4.829,4.829,0,0,0,.946,1.33,6.208,6.208,0,0,0,1.807,1.282q.974.451,1.78.759t1.345.572a.824.824,0,0,1,.54.759q0,.864-1.855.866a3.923,3.923,0,0,1-1.671-.357,5.845,5.845,0,0,1-1.3-.788.526.526,0,0,0-.9.187L28.03,38.751a.551.551,0,0,0,.155.8A7.665,7.665,0,0,0,30.3,40.823a8.652,8.652,0,0,0,3.354.555,7.491,7.491,0,0,0,4.717-1.3,4.152,4.152,0,0,0,1.654-3.431" transform="translate(30.75 27.86)" fill="#fff"/>
        <path id="Pfad_17" data-name="Pfad 17" d="M41.842,32.441a7.492,7.492,0,0,0-1.795-.216,6.537,6.537,0,0,0-4.159,1.189,4.178,4.178,0,0,0-1.5,3.48,4.12,4.12,0,0,0,4.453,4.484q2.938,0,4.022-2.04h.124a2.3,2.3,0,0,0,.912,1.391,3.6,3.6,0,0,0,2.087.494,11.2,11.2,0,0,0,2.782-.37.631.631,0,0,0,.5-.649V37.76a.548.548,0,0,0-.62-.618H47.533V32.009a7.051,7.051,0,0,0-1.624-4.934A6.185,6.185,0,0,0,41.1,25.3a9.7,9.7,0,0,0-3.587.572,8.978,8.978,0,0,0-2.5,1.5.549.549,0,0,0-.092.836l1.267,1.948a.555.555,0,0,0,.927.153,4.544,4.544,0,0,1,2.908-.958,2.863,2.863,0,0,1,2.04.6,2.562,2.562,0,0,1,.62,1.9v.8c-.311-.084-.588-.155-.836-.216m.836,4.793a3.118,3.118,0,0,1-.637.525,2.2,2.2,0,0,1-1.219.279,1.758,1.758,0,0,1-1.3-.433,1.5,1.5,0,0,1-.433-1.114q0-1.548,1.792-1.547a2.6,2.6,0,0,1,1.795.557Z" transform="translate(37.873 27.861)" fill="#fff"/>
        <path id="Pfad_18" data-name="Pfad 18" d="M55.717,45.26q2.15-2.3,2.15-7V26.287a.546.546,0,0,0-.618-.618H55.024a2.5,2.5,0,0,0-1.191.231,1.674,1.674,0,0,0-.664.666h-.126a3.506,3.506,0,0,0-1.484-.929,6.964,6.964,0,0,0-2.32-.34,7.882,7.882,0,0,0-2.753.494,6.791,6.791,0,0,0-2.349,1.471A7.207,7.207,0,0,0,42.5,29.674a8.268,8.268,0,0,0-.618,3.293,9.376,9.376,0,0,0,.555,3.385,6.746,6.746,0,0,0,1.486,2.366,6.121,6.121,0,0,0,2.1,1.393,6.511,6.511,0,0,0,2.412.462,7.14,7.14,0,0,0,1.746-.185,5.01,5.01,0,0,0,1.221-.464,3.094,3.094,0,0,0,.79-.6c.2-.216.355-.406.479-.572h.122v.773a4.831,4.831,0,0,1-.2,1.408,3.013,3.013,0,0,1-.666,1.175,3.2,3.2,0,0,1-1.189.8,4.774,4.774,0,0,1-1.78.292,5.346,5.346,0,0,1-2.2-.4,5.222,5.222,0,0,1-1.452-.929.6.6,0,0,0-.958.092L42.59,44.316a.614.614,0,0,0,.032.834,6.7,6.7,0,0,0,2.675,1.8,10.515,10.515,0,0,0,3.755.616q4.517,0,6.665-2.3M52.765,35.131a2.716,2.716,0,0,1-1.1.851,4.286,4.286,0,0,1-1.622.263,3.127,3.127,0,0,1-1.1-.2,2.743,2.743,0,0,1-.958-.6,2.823,2.823,0,0,1-.664-1.036,3.991,3.991,0,0,1-.248-1.469,3.727,3.727,0,0,1,.277-1.5,3.3,3.3,0,0,1,.712-1.051,2.789,2.789,0,0,1,1-.62,3.618,3.618,0,0,1,1.191-.2,3.4,3.4,0,0,1,2.5.836Z" transform="translate(46.123 27.861)" fill="#fff"/>
        <path id="Pfad_19" data-name="Pfad 19" d="M59.722,27.271H57.339V24.456a.545.545,0,0,0-.618-.616H52.855a.545.545,0,0,0-.618.616v2.816H51.094a.548.548,0,0,0-.62.618v2.66a.547.547,0,0,0,.62.618h1.143V37.2a6,6,0,0,0,1.345,4.3,5.558,5.558,0,0,0,4.161,1.391,7.586,7.586,0,0,0,1.252-.092c.361-.061.656-.124.88-.185a.553.553,0,0,0,.464-.62V39.238a.778.778,0,0,0-.156-.572.747.747,0,0,0-.555-.107,1,1,0,0,1-.248.032H59.1a1.694,1.694,0,0,1-1.347-.481,2.357,2.357,0,0,1-.418-1.561V31.167h2.383a.545.545,0,0,0,.618-.618v-2.66a.546.546,0,0,0-.618-.618" transform="translate(55.588 26.256)" fill="#fff"/>
        <path id="Pfad_20" data-name="Pfad 20" d="M60.96,31.032a3.057,3.057,0,0,0-2.133-.82,3,3,0,0,0-1.933.681,2.382,2.382,0,0,0-.851,1.979,2.547,2.547,0,0,0,.742,1.977,3.007,3.007,0,0,0,1.948.744,3.121,3.121,0,0,1-.88,1.576,5.066,5.066,0,0,1-1.532.96.6.6,0,0,0-.34.834l.372.958a.53.53,0,0,0,.742.372,7.675,7.675,0,0,0,1.795-.8,6.2,6.2,0,0,0,1.53-1.313,5.97,5.97,0,0,0,1.053-1.887,7.5,7.5,0,0,0,.387-2.49,3.609,3.609,0,0,0-.9-2.767" transform="translate(61.586 33.274)" fill="#fff"/>
        <path id="Pfad_21" data-name="Pfad 21" d="M30.086,37.854H27.859a2.471,2.471,0,0,0-1.189.231,1.714,1.714,0,0,0-.666.664h-.124a3.524,3.524,0,0,0-1.484-.927,6.972,6.972,0,0,0-2.32-.34,7.882,7.882,0,0,0-2.753.494,6.791,6.791,0,0,0-2.349,1.471,7.206,7.206,0,0,0-1.639,2.412,8.232,8.232,0,0,0-.618,3.293,9.376,9.376,0,0,0,.555,3.385A6.746,6.746,0,0,0,16.757,50.9a6.092,6.092,0,0,0,2.1,1.393,6.553,6.553,0,0,0,2.412.462,7.141,7.141,0,0,0,1.746-.185,5.01,5.01,0,0,0,1.221-.464,3.132,3.132,0,0,0,.79-.6c.2-.216.355-.406.479-.572h.122v.773a4.831,4.831,0,0,1-.2,1.408,3.013,3.013,0,0,1-.666,1.175,3.218,3.218,0,0,1-1.189.8,4.774,4.774,0,0,1-1.78.292,5.329,5.329,0,0,1-2.194-.4,5.127,5.127,0,0,1-1.454-.929.6.6,0,0,0-.958.092L15.427,56.5a.614.614,0,0,0,.032.834,6.684,6.684,0,0,0,2.675,1.795,10.472,10.472,0,0,0,3.757.618q4.514,0,6.665-2.3t2.148-7V38.472a.546.546,0,0,0-.618-.618M25.6,47.316a2.7,2.7,0,0,1-1.1.851,4.286,4.286,0,0,1-1.622.263,3.127,3.127,0,0,1-1.1-.2,2.749,2.749,0,0,1-.958-.6,2.868,2.868,0,0,1-.664-1.038,3.991,3.991,0,0,1-.248-1.469,3.72,3.72,0,0,1,.277-1.5,3.264,3.264,0,0,1,.712-1.051,2.79,2.79,0,0,1,1-.62,3.617,3.617,0,0,1,1.191-.2,3.412,3.412,0,0,1,2.5.834Z" transform="translate(16.208 41.281)" fill="#fff"/>
        <path id="Pfad_22" data-name="Pfad 22" d="M35.674,39.308a5.811,5.811,0,0,0-2.181-1.378,7.964,7.964,0,0,0-2.7-.448,7.652,7.652,0,0,0-2.7.494,6.93,6.93,0,0,0-2.349,1.471,7.129,7.129,0,0,0-1.671,2.459,8.611,8.611,0,0,0-.635,3.431,10.338,10.338,0,0,0,.586,3.682,6.848,6.848,0,0,0,1.656,2.566,6.521,6.521,0,0,0,2.534,1.5,11.158,11.158,0,0,0,5.257.294,9.438,9.438,0,0,0,1.608-.464,7.353,7.353,0,0,0,1.208-.6,9.264,9.264,0,0,0,.849-.6.565.565,0,0,0,.187-.8l-.992-1.979a.591.591,0,0,0-.927-.277,5.987,5.987,0,0,1-3.341.9q-3.032,0-3.587-2.6h8.475a.56.56,0,0,0,.62-.557,11.065,11.065,0,0,0,.09-1.423,9.523,9.523,0,0,0-.525-3.324,6.4,6.4,0,0,0-1.454-2.335M28.347,44.07a3.053,3.053,0,0,1,.834-1.965,2.345,2.345,0,0,1,1.7-.7,1.963,1.963,0,0,1,1.671.788,3.044,3.044,0,0,1,.586,1.872Z" transform="translate(25.804 41.281)" fill="#fff"/>
        <path id="Pfad_23" data-name="Pfad 23" d="M40.166,39.459H37.785V36.643a.546.546,0,0,0-.618-.618H33.3a.548.548,0,0,0-.62.618v2.816H31.538a.546.546,0,0,0-.618.618v2.66a.546.546,0,0,0,.618.618h1.143v6.031a5.98,5.98,0,0,0,1.347,4.3,5.551,5.551,0,0,0,4.161,1.393,7.577,7.577,0,0,0,1.25-.092c.361-.061.656-.124.883-.185a.553.553,0,0,0,.462-.62V51.426a.779.779,0,0,0-.153-.572.756.756,0,0,0-.557-.107,1.11,1.11,0,0,1-.248.029h-.277A1.7,1.7,0,0,1,38.2,50.3a2.365,2.365,0,0,1-.416-1.561V43.354h2.381a.545.545,0,0,0,.618-.618v-2.66a.545.545,0,0,0-.618-.618" transform="translate(34.053 39.676)" fill="#fff"/>
        <path id="Pfad_24" data-name="Pfad 24" d="M50.548,49.326H49.435V44.193a7.042,7.042,0,0,0-1.622-4.932A6.183,6.183,0,0,0,43,37.481a9.658,9.658,0,0,0-3.587.574,8.923,8.923,0,0,0-2.5,1.5.549.549,0,0,0-.092.836l1.267,1.948a.554.554,0,0,0,.927.153,4.548,4.548,0,0,1,2.908-.958,2.859,2.859,0,0,1,2.042.605,2.555,2.555,0,0,1,.618,1.9v.8c-.311-.082-.588-.153-.836-.216a7.466,7.466,0,0,0-.834-.153,7.125,7.125,0,0,0-.958-.063A6.527,6.527,0,0,0,37.791,45.6a4.171,4.171,0,0,0-1.5,3.478,4.125,4.125,0,0,0,4.455,4.486q2.938,0,4.02-2.042h.124a2.286,2.286,0,0,0,.912,1.391,3.605,3.605,0,0,0,2.087.5,11.217,11.217,0,0,0,2.784-.372.631.631,0,0,0,.5-.649V49.944a.547.547,0,0,0-.62-.618m-5.968.092a3.156,3.156,0,0,1-.635.525,2.191,2.191,0,0,1-1.221.279,1.764,1.764,0,0,1-1.3-.433,1.5,1.5,0,0,1-.433-1.114q0-1.548,1.792-1.547a2.6,2.6,0,0,1,1.795.557Z" transform="translate(39.968 41.279)" fill="#fff"/>
        <path id="Pfad_25" data-name="Pfad 25" d="M58.045,38.89a4.44,4.44,0,0,0-1.717-1.067,6.669,6.669,0,0,0-2.164-.34,4.911,4.911,0,0,0-1.654.248,4.18,4.18,0,0,0-1.175.618,4.326,4.326,0,0,0-.79.773,4.585,4.585,0,0,0-.462.712h-.126a3.944,3.944,0,0,0-.338-.742,2.579,2.579,0,0,0-.588-.681,3.111,3.111,0,0,0-.9-.511,3.538,3.538,0,0,0-1.267-.2q-.867,0-1.515.061t-1.177.155a.585.585,0,0,0-.523.651v2.566a.545.545,0,0,0,.616.618H45.2V52.574a.548.548,0,0,0,.62.62H49.68a.547.547,0,0,0,.618-.62V42.8a3.6,3.6,0,0,1,.82-.7,2.4,2.4,0,0,1,1.347-.357,1.84,1.84,0,0,1,1.53.6,3.058,3.058,0,0,1,.479,1.9v8.317a.548.548,0,0,0,.62.62h3.864a.548.548,0,0,0,.62-.62V43.42a7.984,7.984,0,0,0-.4-2.692,4.964,4.964,0,0,0-1.131-1.839" transform="translate(48.074 41.281)" fill="#fff"/>
        <path id="Pfad_26" data-name="Pfad 26" d="M55.146,42.4a2.649,2.649,0,0,0-2.026.8,2.932,2.932,0,0,0-.759,2.1,2.762,2.762,0,0,0,.773,2.042,2.723,2.723,0,0,0,2.011.771,2.79,2.79,0,0,0,2.04-.754A2.756,2.756,0,0,0,57.96,45.3a2.949,2.949,0,0,0-.756-2.1,2.7,2.7,0,0,0-2.057-.8" transform="translate(57.667 46.694)" fill="#fff"/>
      </g>
    </g>
  </g>
</svg>
