<svg width="175" height="83" viewBox="0 0 175 83" xmlns="http://www.w3.org/2000/svg"><defs><linearGradient x1="-.003%" y1="50.008%" x2="100.002%" y2="50.008%" id="a"><stop stop-color="#CFCECF" offset="0%"/><stop stop-color="#CCC" offset=".952%"/><stop stop-color="#868685" offset="27.26%"/><stop stop-color="#A0A0A0" offset="44.15%"/><stop stop-color="#BAB9B9" offset="63.61%"/><stop stop-color="#C9C9C9" offset="82.5%"/><stop stop-color="#CFCECF" offset="100%"/></linearGradient><linearGradient x1="49.998%" y1="99.998%" x2="49.998%" y2="-.007%" id="b"><stop stop-color="#20A2DC" stop-opacity=".05" offset="0%"/><stop stop-color="#20A2DC" stop-opacity=".1" offset="55.88%"/><stop stop-color="#20A2DC" offset="100%"/></linearGradient><linearGradient x1="50.002%" y1="99.998%" x2="50.002%" y2="-.007%" id="c"><stop stop-color="#014F9D" stop-opacity="0" offset="55.88%"/><stop stop-color="#0F519F" stop-opacity=".125" offset="61.39%"/><stop stop-color="#2458A4" stop-opacity=".267" offset="67.64%"/><stop stop-color="#3E65AD" stop-opacity=".416" offset="74.25%"/><stop stop-color="#5E79BA" stop-opacity=".572" offset="81.12%"/><stop stop-color="#8696CB" stop-opacity=".732" offset="88.18%"/><stop stop-color="#B3BBDF" stop-opacity=".893" offset="95.29%"/><stop stop-color="#D4D7EE" offset="100%"/></linearGradient></defs><g fill-rule="nonzero" fill="none"><path fill="#00B398" d="M34.775 0h105.612v83H34.775z"/><path d="M149.347.239c6.575 0 12.278 1.704 16.495 4.933 4.736 3.627 8.773 9.554 8.773 18.903 0 9.35-4.037 15.277-8.773 18.904-4.217 3.229-9.92 4.933-16.495 4.933H25.482c-6.574 0-12.278-1.704-16.495-4.933C4.252 39.352.214 33.424.214 24.075S4.252 8.8 8.987 5.172c4.217-3.23 9.92-4.933 16.495-4.933h123.865z" transform="translate(0 23.935)" fill="url(#a)"/><path d="M25.482 68.486h123.976c6.132 0 11.752-1.612 15.845-4.536 5.095-3.646 7.791-9.216 7.791-16.092 0-5.231-1.922-10.091-5.406-13.678-2.924-3.017-8.462-6.611-18.189-6.611H25.482c-6.574 0-12.278 1.704-16.495 4.933-4.735 3.627-7.245 8.938-7.245 15.356 0 6.783 2.434 12.088 7.245 15.768 4.148 3.176 9.852 4.86 16.495 4.86z" fill="#FFF"/><path d="M141.743 30.281c5.295 0 9.727-1.253 12.824-3.626 3.387-2.593 5.033-6.313 5.033-11.358 0-4.642-1.743-8.428-5.026-10.947-3.16-2.42-7.598-3.7-12.824-3.7H17.878C12.65.65 8.22 1.93 5.054 4.35 1.763 6.87.028 10.655.028 15.297c0 5.045 1.645 8.765 5.033 11.358 3.097 2.373 7.528 3.626 12.824 3.626h123.858z" transform="translate(7.605 32.555)" fill="url(#b)"/><path d="M149.347 65.509c5.932 0 10.965-1.46 14.56-4.21 4.03-3.09 6.076-7.613 6.076-13.447 0-5.484-2.101-9.993-6.076-13.036-3.664-2.805-8.697-4.283-14.56-4.283H25.482c-5.862 0-10.895 1.478-14.559 4.283-3.975 3.043-6.077 7.552-6.077 13.036 0 5.828 2.047 10.356 6.077 13.446 3.595 2.752 8.628 4.21 14.56 4.21h123.864z" fill="#003EA5"/><path d="M20.643 32.934c-5.296 0-9.727-1.254-12.824-3.627-3.388-2.593-5.033-6.313-5.033-11.358 0-4.642 1.742-8.428 5.026-10.947 3.16-2.42 7.598-3.7 12.824-3.7h123.872c5.226 0 9.658 1.28 12.824 3.7 3.29 2.52 5.026 6.305 5.026 10.947 0 5.045-1.645 8.765-5.033 11.358-3.097 2.373-7.528 3.627-12.824 3.627H20.643z" fill="url(#c)" transform="translate(4.84 29.903)"/><g fill="#003EA5"><path d="M154.947 44.45c2.344-.265 4.169-2.155 4.169-4.469 0-2.493-2.116-4.522-4.715-4.522-2.6 0-4.715 2.03-4.715 4.522 0 1.605.885 3.01 2.205 3.813-.22-.013-.428-.047-.663-.047-2.593 0-4.874.75-4.971.783l-.83.278V48.475c-.94-2.937-3.394-4.608-7.065-4.701h4.839V40.459h-2.723v-4.522h-3.629v4.243l-1.397-3.48-.305-.757h-2.613l-.304.756-1.383 3.475v-4.237h-3.629v.696l-.125-.18-.366-.516H120.395v1.591c-.588-1.015-1.694-1.638-3.063-1.638-.961 0-1.79.312-2.468.929a2.84 2.84 0 0 0-.546.676v-1.551h-3.63V37.388c-.532-.869-1.541-1.446-2.772-1.446H104.335v1.565a2.814 2.814 0 0 0-.56-.683c-.67-.617-1.5-.928-2.468-.928s-1.804.311-2.475.928c-.975.889-.975 1.943-.975 2.964v.146c0 1.02 0 2.075.975 2.964.615.563 1.376.994 2.24 1.06-1.341.233-2.288.557-2.35.577l-.685.232v-1.08h-1.23c-2.745 0-4.515 1.531-6.063 3.308v-8.155H84.695v7.207c-.063-.073-.104-.152-.173-.219-1.245-1.332-3.07-2.075-5.137-2.075-2.627 0-4.238 1.134-5.123 2.082a5.98 5.98 0 0 0-1.182 1.803 6.117 6.117 0 0 0-1.189-1.81c-1.244-1.332-3.07-2.075-5.137-2.075-2.627 0-4.237 1.134-5.122 2.082-.415.43-.954 1.067-.954 1.067s.062-.583.062-1.571c0-3.919-2.855-6.451-7.28-6.451h-9.09v21.13h9.422c3.236 0 5.614-1.411 6.644-3.752a6.064 6.064 0 0 0 1.203 1.837c.878.941 2.482 2.075 5.115 2.075 2.068 0 3.9-.736 5.15-2.082.512-.544.879-1.16 1.17-1.843a6.017 6.017 0 0 0 1.209 1.85c.878.941 2.482 2.075 5.116 2.075 2.067 0 3.899-.736 5.15-2.082.062-.066.104-.146.166-.212v2.102H90.764v-4.164l1.984 3.54.346.624h10.577V48.926c.18-.027.374-.047.574-.047.54 0 1.542 0 1.542 2.096v9.01H111.545V48.926c.18-.027.374-.047.574-.047.54 0 1.542 0 1.542 2.096v9.01H119.419v-2.208c.187.299.402.57.637.803 1.106 1.06 2.585 1.571 4.542 1.571.878 0 1.617-.1 2.274-.325v.16h.014l1.23.006h4.611v-.007H138.03V48.932c.18-.026.374-.046.574-.046.54 0 1.542 0 1.542 2.095v9.011h11.067V48.939c.18-.027.374-.046.575-.046.539 0 1.541 0 1.541 2.095v9.01h5.759v-8.526l-.062-1.18c-.318-2.885-1.742-4.867-4.079-5.842zM38.963 48.92h.982v-.008c.297 0 .677 0 1.175.007l1.01.007.2-.948.601-2.798.305-1.42h-4.231c-2.786 0-4.453 1.115-5.372 2.056a5.884 5.884 0 0 0-1.258 1.823c-.02-2.307-.277-4.634-2.344-6.617-1.458-1.399-3.546-2.141-6.035-2.141h-8.282v21.13h8.296c2.489 0 4.576-.742 6.035-2.134a6.857 6.857 0 0 0 1.645-2.427v4.582h6.035v-.988a2.996 2.996 0 0 0 2.372 1.16c1.631 0 2.959-1.273 2.959-2.838 0-1.564-1.328-2.837-2.96-2.837-.974 0-1.831.457-2.37 1.16V51.67c0-.988.034-2.076.463-2.487.131-.146.325-.265.774-.265z"/></g><g fill="#FFF"><path d="M153.779 40.465h.504l.913 1.287h1.113l-.996-1.406c.408-.166.643-.517.643-.988 0-.69-.497-1.107-1.334-1.107h-1.77v3.5h.92v-1.286h.007zm0-1.405h.774c.47 0 .47.165.47.298 0 .14 0 .292-.47.292h-.774v-.59z"/><path d="M154.408 43.323c1.922 0 3.484-1.498 3.484-3.342 0-1.843-1.562-3.342-3.484-3.342s-3.485 1.499-3.485 3.342c0 1.844 1.563 3.342 3.485 3.342zm0-5.987c1.528 0 2.765 1.187 2.765 2.652 0 1.459-1.237 2.652-2.765 2.652s-2.766-1.187-2.766-2.652 1.238-2.652 2.766-2.652z"/><g transform="translate(16.592 36.533)"><ellipse cx="23.505" cy="20.82" rx="1.728" ry="1.658"/><path d="M12.582 5.311c-1.293-1.24-3.132-1.79-5.164-1.79H.353v18.77h7.065c2.032 0 3.878-.55 5.164-1.79 2.199-2.108 1.977-4.853 1.977-7.671 0-2.825.222-5.404-1.977-7.519zM9.713 17.863c-.657.762-1.542 1.16-2.855 1.16H4.473V6.79h2.385c1.32 0 2.198.397 2.855 1.16.712.842.823 2.029.823 4.88 0 2.844-.11 4.19-.823 5.033zM40.498 12.67c.988-.45 2.42-1.79 2.42-3.871 0-3.216-2.227-5.272-6.05-5.272h-7.86v18.771H37.2c3.491 0 5.994-1.896 5.994-5.404 0-2.512-1.514-3.7-2.696-4.223zm-7.266-5.88h2.834c1.625 0 2.53.868 2.53 2.161 0 1.293-.905 2.162-2.53 2.162h-2.834V6.79zm3.076 12.233h-3.083v-4.615h3.083c1.729 0 2.558 1.028 2.558 2.294 0 1.267-.822 2.32-2.558 2.32zM50.163 8.4c-2.012 0-3.367.79-4.204 1.685-1.23 1.293-1.541 2.844-1.541 5.324 0 2.507.31 4.058 1.541 5.351.837.895 2.192 1.684 4.204 1.684 2.011 0 3.394-.789 4.23-1.684.54-.564.9-1.18 1.141-1.91l-3.187-1c-.117.483-.297.901-.587 1.22-.394.43-.913.662-1.59.662-.678 0-1.176-.232-1.57-.663-.58-.643-.733-1.657-.767-2.857h8.095c.007-.26.014-.524.014-.803 0-2.48-.311-4.031-1.542-5.324-.843-.895-2.226-1.684-4.237-1.684zm-2.282 5.338c.09-.809.284-1.485.712-1.962.394-.431.885-.663 1.57-.663.677 0 1.203.232 1.59.663.435.477.629 1.153.712 1.962H47.88zM64.39 19.07c-.394.43-.912.662-1.59.662-.677 0-1.175-.232-1.57-.663-.704-.776-.78-2.102-.78-3.66 0-1.558.076-2.85.78-3.633.395-.431.886-.663 1.57-.663.678 0 1.203.232 1.59.663.263.285.436.643.553 1.06l3.166-.994a4.865 4.865 0 0 0-1.085-1.757c-.836-.895-2.22-1.684-4.23-1.684-2.013 0-3.368.789-4.204 1.684-1.224 1.293-1.542 2.844-1.542 5.324 0 2.507.311 4.058 1.542 5.351.836.895 2.191 1.684 4.203 1.684 2.012 0 3.395-.789 4.231-1.684a4.9 4.9 0 0 0 1.14-1.916l-3.186-1.001c-.118.484-.298.908-.588 1.226zM116.896 9.117v13.135h3.298V11.477s4.583-1.777 4.583 2.95v7.832h3.298v-7.347c-.014-9.515-11.179-5.795-11.179-5.795zM141.245 14.912c0-9.508-11.165-5.788-11.165-5.788v13.135h3.298V11.484s4.583-1.777 4.583 2.95v7.831h3.298l-.014-7.353zM91.11 9.342c-3.298-1.982-8.566-.225-8.566-.225v13.135h3.298V11.477s4.583-1.777 4.583 2.95v7.832h3.298V11.477s4.584-1.777 4.584 2.95v7.832h3.297v-7.347c-.02-8.295-7.521-6.577-10.494-5.57zM107.916 8.4c-1.334.02-3.567.458-4.418.644l.692 2.612c1.41-.285 2.42-.51 3.526-.517 1.562-.006 3.297.126 3.705 2.36v.26h-3.38c-3.326 0-4.895 1.982-4.895 4.17 0 1.213.415 2.513 1.182 3.275.85.816 2.033 1.214 3.657 1.214 1.639 0 2.544-.392 3.505-1.307v1.14h.014v.008h3.38v-7.354c.008-5.423-3.746-6.544-6.968-6.504zm3.512 8.826c0 .842-.138 1.492-.525 1.837-.63.576-1.466.656-2.455.656-1.403 0-2.06-.922-2.06-1.87 0-.974.712-1.75 2.005-1.75h3.035v1.127zM80.222 11.08V8.335c-2.641 0-4.183 1.723-6.133 4.097a66.72 66.72 0 0 0-1.161 1.446V3.488H69.34v18.77h3.588v-3.553l1.314-1.77 2.98 5.324h3.954l-4.916-8.103c.007 0 2.026-3.076 3.962-3.076zM84.722 6.107c.684 0 1.196-.213 1.618-.597.608-.557.601-1.24.601-2.188 0-.948.007-1.631-.601-2.182-.422-.384-.934-.603-1.618-.603s-1.203.219-1.625.603c-.608.557-.587 1.24-.587 2.182 0 .948-.014 1.631.587 2.188.422.384.948.597 1.625.597zm-.753-4.323c.165-.18.435-.292.76-.292.318 0 .58.113.747.292.228.232.297.484.297 1.538s-.07 1.306-.297 1.538c-.166.18-.429.292-.747.292s-.588-.113-.76-.292c-.229-.232-.284-.484-.284-1.538-.007-1.054.055-1.306.284-1.538zM90.149 3.879h.843l1.169 2.181h1.355L92.175 3.7c.58-.192 1.092-.67 1.092-1.439 0-.915-.726-1.678-1.943-1.678h-2.35V6.06h1.168V3.88h.007zm0-2.34h1.106c.512 0 .85.298.85.722s-.338.723-.85.723H90.15V1.538zM95.327.583h1.168V6.06h-1.168zM100.747 3.905h1.106v.206c0 .285-.076.53-.27.73-.193.192-.477.304-.836.304-.318 0-.58-.106-.747-.285-.228-.232-.283-.49-.283-1.545 0-1.054.062-1.306.283-1.538.166-.18.429-.292.747-.292.601 0 .94.285 1.078.803h1.183c-.16-.922-.871-1.758-2.261-1.758-.67 0-1.196.22-1.618.604-.608.557-.587 1.24-.587 2.181 0 .948-.014 1.631.587 2.188.422.385.961.597 1.618.597.643 0 1.217-.172 1.694-.623.421-.398.574-.875.574-1.671v-.802h-2.268v.901zM105.04.583h1.168V6.06h-1.168zM109.624 2.699l2.378 3.361h1.044V.583h-1.169V3.94L109.5.583h-1.044V6.06h1.169zM118.7 6.06h1.224L117.733.583h-.92L114.63 6.06h1.223l.36-.968h2.13l.359.968zm-2.156-1.87l.76-1.995.733 1.995h-1.493zM125.393 5.105h-2.717V.583H121.5V6.06h3.892zM22.371 11.206c.125 0-.47-.014 2.164 0l.602-2.799c-2.641-.006-2.648 0-2.773 0-2.115 0-3.546.783-4.424 1.685-1.293 1.293-1.625 2.844-1.625 5.324v6.896h3.574v-7.188c0-1.425.083-2.612.823-3.322.422-.398.947-.596 1.66-.596z"/></g></g></g></svg>