<?xml version="1.0" encoding="utf-8"?>
<svg version="1.1" id="Logo" xmlns="http://www.w3.org/2000/svg" x="0px" y="0px"
	 viewBox="0 0 38 38" style="enable-background:new 0 0 38 38;" xml:space="preserve">
<style type="text/css">
	.st0{fill:#FFFFFF;}
	.st1{fill:#B71F34;}
	.st2{fill:#EC660A;}
</style>
<g>
	<g>
		<path class="st1" d="M26.5,2.6c-3.3-2.3-11-4-16.7-1C3.1,5,1.8,10.7,1.8,14.2C1.6,26.5,13.3,32.1,13.3,32.1s-5.1-6.3,1.5-14.3
			c5.1-6.2,10.6-8.5,13-10.4C29.6,6.1,29.2,4.4,26.5,2.6z"/>
		<path class="st2" d="M22.2,31.5c-4.8-5,5.7-12.7,8-15.2c3.3-3.4,2.6-8.5,2.6-8.5c3.4,3.8,4.6,9,3.5,15.1c-0.9,5.4-5.3,8.2-6.9,8.8
			C25.9,33.3,23.8,32.8,22.2,31.5z"/>
		<path class="st1" d="M5.2,28.9c-2-2-3.5-4.5-5.2-9.4C0,19.5-0.7,31,9.5,36c5.1,2.6,10.4,2.3,14,1.1c3.7-1.2,6-3.2,6-3.2
			S15.6,39.6,5.2,28.9z"/>
	</g>
</g>
</svg>
