<?xml version="1.0" encoding="UTF-8"?>
<svg class="logo-svg" data-name="Logo" xmlns="http://www.w3.org/2000/svg" xmlns:xlink="http://www.w3.org/1999/xlink" viewBox="0 0 420 420">
  <defs>
    <radialGradient id="b" cx="136.86828" cy="310.1992" fx="136.86828" fy="310.1992" r="222.44052" gradientTransform="matrix(1, 0, 0, 1, 0, 0)" gradientUnits="userSpaceOnUse">
      <stop offset="0" stop-color="#005ca9"/>
      <stop offset=".42769" stop-color="#00aec3"/>
      <stop offset="1" stop-color="#afca0b"/>
    </radialGradient>
  </defs>
  <g>
    <path d="M228.28502,187.70232c-.00049-8.33236-3.17938-16.66407-9.53666-23.02152L126.49931,72.39312c-12.72684-12.72667-33.3612-12.72667-46.08804,0-12.72684,12.72667-12.72684,33.36087,0,46.0882l58.38775,58.34618c3.00313,3.00329,4.50494,6.93873,4.50543,10.87482h.00736l-.00736,.0144c-.00049,3.93609-1.5023,7.87153-4.50543,10.87482l-58.38775,58.34618c-12.72684,12.72733-12.72684,33.36153,0,46.0882,12.72684,12.72667,33.3612,12.72667,46.08804,0l92.24906-92.28768c6.35728-6.35744,9.53617-14.68915,9.53666-23.02152l-.01653-.0144h.01653Z" fill="url(#b)"/>
    <path d="M351.80708,349.23522l-58.43586-58.356c-6.0074-6.00724-6.0074-15.74698,0-21.75487l58.39593-58.39593c12.71571-12.71554,12.71571-33.33207,0-46.04762l-92.24906-92.28768c-12.72684-12.72667-33.3612-12.72667-46.08804,0-12.72684,12.72667-12.72684,33.36087,0,46.0882l58.38775,58.34618c6.0074,6.00724,6.0074,15.74698,0,21.75422l-58.39593,58.39593c-12.71587,12.7162-12.71587,33.33207,0,46.04827l92.29734,92.2975c12.72684,12.72667,33.36104,12.72667,46.08787,0,12.72684-12.72733,12.72684-33.36153,0-46.0882Z" fill="#6bb53e"/>
  </g>
</svg>
